<svg width="64" height="65" viewBox="0 0 64 65" fill="none" xmlns="http://www.w3.org/2000/svg">
<path fill-rule="evenodd" clip-rule="evenodd" d="M5 5.01416H59C61.7614 5.01416 64 7.25274 64 10.0142V54.0142C64 56.7756 61.7614 59.0142 59 59.0142H5C2.23858 59.0142 0 56.7756 0 54.0142V10.0142C0 7.25274 2.23858 5.01416 5 5.01416Z" fill="#E7E8EA"/>
<path fill-rule="evenodd" clip-rule="evenodd" d="M5 5.01416H59C61.7614 5.01416 64 7.25274 64 10.0142V54.0142C64 56.7756 61.7614 59.0142 59 59.0142H5C2.23858 59.0142 0 56.7756 0 54.0142V10.0142C0 7.25274 2.23858 5.01416 5 5.01416Z" fill="url(#paint0_linear_3274_329140)" fill-opacity="0.4" style="mix-blend-mode:soft-light"/>
<path fill-rule="evenodd" clip-rule="evenodd" d="M5 5.01416H59C61.7614 5.01416 64 7.25274 64 10.0142V17.0142H0V10.0142C0 7.25274 2.23858 5.01416 5 5.01416Z" fill="#CFD2D5"/>
<path fill-rule="evenodd" clip-rule="evenodd" d="M5 5.01416H59C61.7614 5.01416 64 7.25274 64 10.0142V17.0142H0V10.0142C0 7.25274 2.23858 5.01416 5 5.01416Z" fill="url(#paint1_linear_3274_329140)" fill-opacity="0.4" style="mix-blend-mode:soft-light"/>
<path fill-rule="evenodd" clip-rule="evenodd" d="M7 8.01416C8.65685 8.01416 10 9.35731 10 11.0142C10 12.671 8.65685 14.0142 7 14.0142C5.34315 14.0142 4 12.671 4 11.0142C4 9.35731 5.34315 8.01416 7 8.01416ZM16 8.01416C17.6569 8.01416 19 9.35731 19 11.0142C19 12.671 17.6569 14.0142 16 14.0142C14.3431 14.0142 13 12.671 13 11.0142C13 9.35731 14.3431 8.01416 16 8.01416ZM25 8.01416C26.6569 8.01416 28 9.35731 28 11.0142C28 12.671 26.6569 14.0142 25 14.0142C23.3431 14.0142 22 12.671 22 11.0142C22 9.35731 23.3431 8.01416 25 8.01416Z" fill="white"/>
<path fill-rule="evenodd" clip-rule="evenodd" d="M36.4463 24.7982C37.4348 25.158 37.9673 26.2161 37.6894 27.2127L37.6416 27.3616L30.1172 48.0348C29.7394 49.0728 28.5917 49.608 27.5537 49.2302C26.5652 48.8704 26.0327 47.8123 26.3106 46.8157L26.3584 46.6667L33.8828 25.9935C34.2606 24.9556 35.4083 24.4204 36.4463 24.7982ZM23.6278 28.8522C24.2375 29.7063 24.0797 30.8762 23.2916 31.5413L23.162 31.642L16.415 36.4572L23.1799 41.3993C24.0272 42.0183 24.2453 43.1785 23.7063 44.0577L23.6149 44.194C22.9959 45.0413 21.8356 45.2595 20.9565 44.7205L20.8201 44.6291L11.8201 38.0535C10.7632 37.2812 10.7293 35.7333 11.7101 34.9098L11.838 34.8108L20.838 28.3863C21.737 27.7446 22.9861 27.9532 23.6278 28.8522ZM40.3723 28.8522C40.982 27.9981 42.1397 27.7672 43.0248 28.2964L43.1621 28.3863L52.1621 34.8108L52.29 34.9098C53.23 35.699 53.238 37.1535 52.3068 37.953L52.18 38.0535L43.18 44.6291L43.0437 44.7205C42.2134 45.2295 41.1324 45.0632 40.4933 44.3294L40.3853 44.194L40.2938 44.0577C39.7848 43.2274 39.9511 42.1464 40.6849 41.5073L40.8203 41.3993L47.5852 36.4572L40.8382 31.642L40.7085 31.5413C39.9204 30.8762 39.7627 29.7063 40.3723 28.8522Z" fill="#017DE8"/>
<path fill-rule="evenodd" clip-rule="evenodd" d="M36.4463 24.7982C37.4348 25.158 37.9673 26.2161 37.6894 27.2127L37.6416 27.3616L30.1172 48.0348C29.7394 49.0728 28.5917 49.608 27.5537 49.2302C26.5652 48.8704 26.0327 47.8123 26.3106 46.8157L26.3584 46.6667L33.8828 25.9935C34.2606 24.9556 35.4083 24.4204 36.4463 24.7982ZM23.6278 28.8522C24.2375 29.7063 24.0797 30.8762 23.2916 31.5413L23.162 31.642L16.415 36.4572L23.1799 41.3993C24.0272 42.0183 24.2453 43.1785 23.7063 44.0577L23.6149 44.194C22.9959 45.0413 21.8356 45.2595 20.9565 44.7205L20.8201 44.6291L11.8201 38.0535C10.7632 37.2812 10.7293 35.7333 11.7101 34.9098L11.838 34.8108L20.838 28.3863C21.737 27.7446 22.9861 27.9532 23.6278 28.8522ZM40.3723 28.8522C40.982 27.9981 42.1397 27.7672 43.0248 28.2964L43.1621 28.3863L52.1621 34.8108L52.29 34.9098C53.23 35.699 53.238 37.1535 52.3068 37.953L52.18 38.0535L43.18 44.6291L43.0437 44.7205C42.2134 45.2295 41.1324 45.0632 40.4933 44.3294L40.3853 44.194L40.2938 44.0577C39.7848 43.2274 39.9511 42.1464 40.6849 41.5073L40.8203 41.3993L47.5852 36.4572L40.8382 31.642L40.7085 31.5413C39.9204 30.8762 39.7627 29.7063 40.3723 28.8522Z" fill="url(#paint2_linear_3274_329140)" fill-opacity="0.4" style="mix-blend-mode:soft-light"/>
<defs>
<linearGradient id="paint0_linear_3274_329140" x1="0" y1="5.01416" x2="53.2299" y2="68.1014" gradientUnits="userSpaceOnUse">
<stop stop-color="white"/>
<stop offset="1"/>
</linearGradient>
<linearGradient id="paint1_linear_3274_329140" x1="0" y1="5.01416" x2="4.34717" y2="28.1991" gradientUnits="userSpaceOnUse">
<stop stop-color="white"/>
<stop offset="1"/>
</linearGradient>
<linearGradient id="paint2_linear_3274_329140" x1="11" y1="24.677" x2="32.5528" y2="61.3638" gradientUnits="userSpaceOnUse">
<stop stop-color="white"/>
<stop offset="1"/>
</linearGradient>
</defs>
</svg>
