<svg width="64" height="65" viewBox="0 0 64 65" fill="none" xmlns="http://www.w3.org/2000/svg">
<path fill-rule="evenodd" clip-rule="evenodd" d="M64 13.0142C64 10.2527 61.7614 8.01416 59 8.01416H5C2.23858 8.01416 0 10.2527 0 13.0142V42.4851C0 45.2465 2.23858 47.4851 5 47.4851H38.7635C40.1866 47.4851 41.5422 48.0914 42.4908 49.1522L52.5091 60.3562C52.8885 60.7805 53.4308 61.023 54 61.023C55.0544 61.023 55.9182 60.2072 55.9945 59.1723L56 59.023L55.9955 49.486C55.9949 48.3811 56.8905 47.4851 57.9955 47.4851H59C61.7614 47.4851 64 45.2465 64 42.4851V13.0142Z" fill="#E7E8EA"/>
<path fill-rule="evenodd" clip-rule="evenodd" d="M64 13.0142C64 10.2527 61.7614 8.01416 59 8.01416H5C2.23858 8.01416 0 10.2527 0 13.0142V42.4851C0 45.2465 2.23858 47.4851 5 47.4851H38.7635C40.1866 47.4851 41.5422 48.0914 42.4908 49.1522L52.5091 60.3562C52.8885 60.7805 53.4308 61.023 54 61.023C55.0544 61.023 55.9182 60.2072 55.9945 59.1723L56 59.023L55.9955 49.486C55.9949 48.3811 56.8905 47.4851 57.9955 47.4851H59C61.7614 47.4851 64 45.2465 64 42.4851V13.0142Z" fill="url(#paint0_linear_3274_329119)" fill-opacity="0.4" style="mix-blend-mode:soft-light"/>
<path d="M32 42.0142C24.268 42.0142 18 35.7461 18 28.0142C18 20.2822 24.268 14.0142 32 14.0142C39.732 14.0142 46 20.2822 46 28.0142C46 35.7461 39.732 42.0142 32 42.0142Z" fill="#017DE8"/>
<path d="M32 42.0142C24.268 42.0142 18 35.7461 18 28.0142C18 20.2822 24.268 14.0142 32 14.0142C39.732 14.0142 46 20.2822 46 28.0142C46 35.7461 39.732 42.0142 32 42.0142Z" fill="url(#paint1_linear_3274_329119)" fill-opacity="0.4" style="mix-blend-mode:soft-light"/>
<path d="M32.9783 36.2098V35.4181C33.6159 35.4035 34.2355 35.2942 34.837 35.0901C35.4384 34.886 35.9746 34.5872 36.4457 34.1937C36.9167 33.8001 37.2935 33.3082 37.5761 32.7178C37.8587 32.1275 38 31.4315 38 30.6298C38 29.8427 37.8478 29.1868 37.5435 28.662C37.2391 28.1373 36.8478 27.6927 36.3696 27.3283C35.8913 26.9639 35.3623 26.6724 34.7826 26.4537C34.2029 26.2351 33.6304 26.0383 33.0652 25.8634V22.3651C33.529 22.3797 34.0145 22.489 34.5217 22.6931C35.029 22.8972 35.4638 23.1814 35.8261 23.5458C36.5217 22.7733 37.2246 21.9789 37.9348 21.1626C37.2536 20.6087 36.4783 20.2006 35.6087 19.9382C34.7391 19.6758 33.8913 19.5301 33.0652 19.5009V18.8076C33.0652 18.3694 32.71 18.0142 32.2717 18.0142C31.8335 18.0142 31.4783 18.3694 31.4783 18.8076V19.5228C30.913 19.5519 30.3406 19.6722 29.7609 19.8835C29.1812 20.0949 28.6594 20.3937 28.1957 20.78C27.7319 21.1663 27.3551 21.64 27.0652 22.2012C26.7754 22.7623 26.6304 23.4 26.6304 24.1143C26.6304 24.8431 26.7609 25.4589 27.0217 25.9618C27.2826 26.4647 27.6304 26.891 28.0652 27.2409C28.5 27.5907 29.0036 27.8749 29.5761 28.0936C30.1486 28.3122 30.7464 28.509 31.3696 28.6839V32.5101C31.1232 32.5101 30.8623 32.47 30.587 32.3899C30.3116 32.3097 30.0362 32.204 29.7609 32.0728C29.4855 31.9417 29.2174 31.785 28.9565 31.6028C28.6957 31.4206 28.471 31.2201 28.2826 31.0015C27.9058 31.4096 27.5254 31.8141 27.1413 32.215L26 33.4066C26.7246 34.0625 27.5652 34.5544 28.5217 34.8824C29.4783 35.2104 30.4275 35.3889 31.3696 35.4181V36.2098C31.3696 36.654 31.7297 37.0142 32.1739 37.0142C32.6181 37.0142 32.9783 36.654 32.9783 36.2098ZM31.4783 25.4917C31.0145 25.3751 30.6449 25.1929 30.3696 24.9451C30.0942 24.6973 29.9565 24.3402 29.9565 23.8738C29.9565 23.3928 30.1123 23.0247 30.4239 22.7696C30.7355 22.5145 31.087 22.3651 31.4783 22.3214V25.4917ZM32.9783 29.0774C33.442 29.2232 33.8225 29.4236 34.1196 29.6787C34.4167 29.9338 34.5652 30.3164 34.5652 30.8266C34.5652 31.3368 34.4239 31.7412 34.1413 32.0401C33.8587 32.3389 33.471 32.5028 32.9783 32.532V29.0774Z" fill="white"/>
<defs>
<linearGradient id="paint0_linear_3274_329119" x1="64" y1="8.01416" x2="11.9184" y2="70.8946" gradientUnits="userSpaceOnUse">
<stop stop-color="white"/>
<stop offset="1"/>
</linearGradient>
<linearGradient id="paint1_linear_3274_329119" x1="46" y1="14.0142" x2="18" y2="42.0142" gradientUnits="userSpaceOnUse">
<stop stop-color="white"/>
<stop offset="1"/>
</linearGradient>
</defs>
</svg>
