<svg width="64" height="65" viewBox="0 0 64 65" fill="none" xmlns="http://www.w3.org/2000/svg">
<path fill-rule="evenodd" clip-rule="evenodd" d="M41.0372 33.3042L41.1739 33.3951L55.7666 43.9748C55.9376 44.0987 56.0879 44.249 56.2119 44.42C56.8278 45.2696 56.6787 46.4407 55.8955 47.1116L55.7666 47.2132L41.1739 57.7929C40.8325 58.0404 40.4217 58.1737 40 58.1737C38.9456 58.1737 38.0818 57.3578 38.0055 56.3229L38 56.1737V51.1732L9 51.1738C7.40232 51.1738 6.09634 49.9249 6.00509 48.3501L6 48.1738V43.1738C6 41.5761 7.24892 40.2701 8.82373 40.1789L9 40.1738L38 40.1732V35.0143C38 34.6529 38.0979 34.2994 38.2818 33.9908L38.3808 33.8404C38.9967 32.9908 40.1561 32.7684 41.0372 33.3042ZM25.212 6.84037C25.4595 7.18176 25.5928 7.59264 25.5928 8.0143L25.592 13.1732L54.5928 13.1738C56.2497 13.1738 57.5928 14.5169 57.5928 16.1738V21.1738C57.5928 22.8307 56.2497 24.1738 54.5928 24.1738L25.592 24.1732L25.5928 29.1737C25.5928 30.2782 24.6974 31.1737 23.5928 31.1737C23.1711 31.1737 22.7603 31.0404 22.4189 30.7929L7.82621 20.2132C6.93194 19.5649 6.73258 18.3143 7.38092 17.42C7.50491 17.249 7.6552 17.0987 7.82621 16.9748L22.4189 6.39508C23.3131 5.74674 24.5637 5.9461 25.212 6.84037Z" fill="#E7E8EA"/>
<path fill-rule="evenodd" clip-rule="evenodd" d="M41.0372 33.3042L41.1739 33.3951L55.7666 43.9748C55.9376 44.0987 56.0879 44.249 56.2119 44.42C56.8278 45.2696 56.6787 46.4407 55.8955 47.1116L55.7666 47.2132L41.1739 57.7929C40.8325 58.0404 40.4217 58.1737 40 58.1737C38.9456 58.1737 38.0818 57.3578 38.0055 56.3229L38 56.1737V51.1732L9 51.1738C7.40232 51.1738 6.09634 49.9249 6.00509 48.3501L6 48.1738V43.1738C6 41.5761 7.24892 40.2701 8.82373 40.1789L9 40.1738L38 40.1732V35.0143C38 34.6529 38.0979 34.2994 38.2818 33.9908L38.3808 33.8404C38.9967 32.9908 40.1561 32.7684 41.0372 33.3042ZM25.212 6.84037C25.4595 7.18176 25.5928 7.59264 25.5928 8.0143L25.592 13.1732L54.5928 13.1738C56.2497 13.1738 57.5928 14.5169 57.5928 16.1738V21.1738C57.5928 22.8307 56.2497 24.1738 54.5928 24.1738L25.592 24.1732L25.5928 29.1737C25.5928 30.2782 24.6974 31.1737 23.5928 31.1737C23.1711 31.1737 22.7603 31.0404 22.4189 30.7929L7.82621 20.2132C6.93194 19.5649 6.73258 18.3143 7.38092 17.42C7.50491 17.249 7.6552 17.0987 7.82621 16.9748L22.4189 6.39508C23.3131 5.74674 24.5637 5.9461 25.212 6.84037Z" fill="url(#paint0_linear_3274_329129)" fill-opacity="0.4" style="mix-blend-mode:soft-light"/>
<path d="M32 45.0142C39.1797 45.0142 45 39.1939 45 32.0142C45 24.8345 39.1797 19.0142 32 19.0142C24.8203 19.0142 19 24.8345 19 32.0142C19 39.1939 24.8203 45.0142 32 45.0142Z" fill="#017DE8"/>
<path d="M32 45.0142C39.1797 45.0142 45 39.1939 45 32.0142C45 24.8345 39.1797 19.0142 32 19.0142C24.8203 19.0142 19 24.8345 19 32.0142C19 39.1939 24.8203 45.0142 32 45.0142Z" fill="url(#paint1_linear_3274_329129)" fill-opacity="0.4" style="mix-blend-mode:soft-light"/>
<path fill-rule="evenodd" clip-rule="evenodd" d="M32.4649 24.0676C32.9778 24.0676 33.4004 24.4537 33.4582 24.951L33.4649 25.0676L33.464 30.5502L36.4788 30.5503C36.6369 30.5503 36.7921 30.5877 36.932 30.6588L37.0338 30.7184C37.4604 31.003 37.5978 31.5587 37.3698 32.0045L37.3107 32.1052L32.3669 39.5157C32.1814 39.7937 31.8693 39.9607 31.535 39.9607C31.0222 39.9607 30.5995 39.5747 30.5417 39.0773L30.535 38.9607L30.535 33.4772L27.5211 33.4781C27.3631 33.4781 27.2079 33.4406 27.068 33.3695L26.9661 33.31C26.5395 33.0253 26.4022 32.4696 26.6301 32.0239L26.6892 31.9231L31.633 24.5127C31.8185 24.2346 32.1307 24.0676 32.4649 24.0676Z" fill="white"/>
<defs>
<linearGradient id="paint0_linear_3274_329129" x1="6" y1="6.01416" x2="58.1564" y2="57.6039" gradientUnits="userSpaceOnUse">
<stop stop-color="white"/>
<stop offset="1"/>
</linearGradient>
<linearGradient id="paint1_linear_3274_329129" x1="19" y1="19.0142" x2="45" y2="45.0142" gradientUnits="userSpaceOnUse">
<stop stop-color="white"/>
<stop offset="1"/>
</linearGradient>
</defs>
</svg>
