<svg width="32" height="33" viewBox="0 0 32 33" fill="none" xmlns="http://www.w3.org/2000/svg">
<rect x="0.000976562" y="0.00292969" width="32" height="32" rx="16" fill="#F7931A"/>
<rect x="0.000976562" y="0.00292969" width="32" height="32" rx="16" fill="url(#paint0_linear_3274_329305)" fill-opacity="0.4" style="mix-blend-mode:soft-light"/>
<g filter="url(#filter0_ii_3274_329305)">
<path d="M23.0563 13.7234C23.3748 11.5941 21.7537 10.4496 19.5371 9.68604L20.2562 6.80178L18.5004 6.3643L17.8004 9.17262C17.3388 9.0575 16.8648 8.94902 16.3937 8.84149L17.0988 6.01464L15.3442 5.57715L14.6247 8.46047C14.2427 8.3735 13.8675 8.28755 13.5036 8.19699L13.5056 8.18792L11.0844 7.5833L10.6174 9.45854C10.6174 9.45854 11.92 9.75713 11.8925 9.77551C12.6035 9.95296 12.7321 10.4236 12.7107 10.7967L11.8916 14.0825L11.8885 14.0952L10.7404 18.6982C10.6535 18.9142 10.433 19.2383 9.93587 19.1152C9.95347 19.1407 8.65978 18.7968 8.65978 18.7968L7.78809 20.8065L10.0729 21.3761C10.4979 21.4827 10.9145 21.5942 11.3247 21.6991L10.5981 24.6164L12.3518 25.0539L13.0713 22.1676C13.5504 22.2976 14.0154 22.4176 14.4705 22.5307L13.7534 25.4034L15.5093 25.8409L16.2357 22.9291C19.2296 23.4957 21.4808 23.2672 22.4283 20.5593C23.1919 18.379 22.3903 17.1214 20.8153 16.3014C21.9625 16.0368 22.8266 15.2823 23.057 13.7236L23.0563 13.7234ZM19.0449 19.3485C18.5023 21.5287 14.8314 20.3501 13.6413 20.0546L14.6054 16.1896C15.7955 16.4867 19.6119 17.0747 19.0449 19.3485ZM19.5879 13.6918C19.0929 15.6749 16.0376 14.6674 15.0465 14.4204L15.9206 10.9151C16.9117 11.1621 20.1033 11.6232 19.5879 13.6918Z" fill="#F3F3F4"/>
</g>
<path d="M22.8091 13.6864L22.7962 13.7728C22.6802 14.4676 22.4307 14.9693 22.097 15.3273C21.7496 15.7001 21.2948 15.9342 20.7591 16.0578L20.0986 16.2101L20.6998 16.5231C21.4591 16.9184 21.9992 17.4025 22.2698 18.0205C22.5389 18.6352 22.5603 19.4261 22.1924 20.4766L22.1924 20.4767C21.7421 21.7636 20.9978 22.4341 20.0259 22.7332C19.0314 23.0392 17.7707 22.9651 16.2822 22.6834L16.0503 22.6395L15.9932 22.8685L15.3272 25.5379L14.0566 25.2213L14.7131 22.5912L14.7737 22.3484L14.5308 22.2881C14.0771 22.1753 13.614 22.0558 13.1368 21.9263L12.8905 21.8594L12.8288 22.1071L12.1697 24.7508L10.9011 24.4344L11.5673 21.7595L11.6273 21.5184L11.3866 21.4569C11.2206 21.4145 11.0515 21.3704 10.8805 21.3258C10.6343 21.2616 10.3842 21.1964 10.1337 21.1336L10.1334 21.1335L8.13485 20.6353L8.80364 19.0934C8.92422 19.1251 9.08333 19.1668 9.24202 19.2077C9.40289 19.2491 9.5645 19.2901 9.68528 19.3193C9.74516 19.3337 9.79756 19.3459 9.83548 19.3537C9.85314 19.3574 9.87369 19.3614 9.89185 19.3637L9.89241 19.3638C9.89504 19.3642 9.90071 19.3649 9.90838 19.3655C10.2082 19.4315 10.4531 19.3705 10.6384 19.2365C10.8197 19.1054 10.9197 18.9223 10.9723 18.7915L10.9788 18.7754L10.983 18.7587L12.1311 14.1557L12.1311 14.1557L12.1316 14.1537L12.1342 14.143L12.1346 14.141L12.9533 10.8571L12.959 10.8344L12.9603 10.8109C12.9728 10.5926 12.943 10.324 12.7873 10.0788C12.6329 9.83543 12.3739 9.64537 11.9879 9.54195C11.9822 9.53942 11.9779 9.53772 11.9757 9.53685L11.9752 9.53664C11.9564 9.52919 11.9351 9.52247 11.9176 9.51721C11.8797 9.5058 11.8271 9.49163 11.7674 9.47619C11.6468 9.445 11.4847 9.40551 11.3233 9.36697C11.1804 9.33285 11.037 9.2992 10.9214 9.27228L11.2665 7.88646L13.2083 8.37135L13.2062 8.38062L13.4432 8.43959C13.8099 8.53084 14.1873 8.61729 14.5692 8.70423L14.8079 8.75859L14.8672 8.521L15.5262 5.88019L16.7957 6.19672L16.1511 8.78098L16.0894 9.02846L16.3381 9.08522C16.8095 9.19282 17.2811 9.30076 17.7399 9.41518L17.9825 9.47569L18.043 9.23308L18.6825 6.66732L19.9531 6.98391L19.2945 9.62556L19.2391 9.84782L19.4556 9.92241C20.5517 10.3 21.4678 10.7617 22.0699 11.3686C22.6596 11.9631 22.9561 12.7035 22.8091 13.6864ZM19.2875 19.4088C19.4488 18.762 19.2963 18.2205 18.9548 17.7835C18.6223 17.3581 18.1193 17.0415 17.5874 16.8001C16.7361 16.4138 15.7347 16.1894 15.0784 16.0423C14.9179 16.0064 14.778 15.975 14.666 15.9471L14.4234 15.8865L14.3629 16.1291L13.3987 19.9941L13.3382 20.2369L13.581 20.2972C13.6747 20.3205 13.786 20.3499 13.9119 20.3832C14.5612 20.5549 15.5967 20.8288 16.5729 20.8796C17.1567 20.91 17.7485 20.8632 18.239 20.6493C18.7424 20.4297 19.1314 20.0362 19.2875 19.4088ZM19.8304 13.7523L19.8305 13.7522C19.9769 13.1647 19.8603 12.6725 19.5749 12.2744C19.2974 11.8872 18.8727 11.6052 18.4259 11.3943C17.7129 11.0577 16.8686 10.8712 16.3219 10.7504C16.1885 10.7209 16.0728 10.6953 15.9811 10.6725L15.7385 10.612L15.6781 10.8546L14.8039 14.3599L14.7434 14.6025L14.986 14.6629C15.0635 14.6822 15.1562 14.707 15.2613 14.7351C15.8014 14.8795 16.6708 15.112 17.4941 15.1422C17.9879 15.1604 18.4941 15.1079 18.9181 14.9019C19.3542 14.6899 19.6882 14.3221 19.8304 13.7523Z" stroke="white" stroke-opacity="0.8" stroke-width="0.5"/>
<defs>
<filter id="filter0_ii_3274_329305" x="6.78809" y="4.57715" width="17.3083" height="22.2637" filterUnits="userSpaceOnUse" color-interpolation-filters="sRGB">
<feFlood flood-opacity="0" result="BackgroundImageFix"/>
<feBlend mode="normal" in="SourceGraphic" in2="BackgroundImageFix" result="shape"/>
<feColorMatrix in="SourceAlpha" type="matrix" values="0 0 0 0 0 0 0 0 0 0 0 0 0 0 0 0 0 0 127 0" result="hardAlpha"/>
<feOffset dx="-1" dy="-1"/>
<feGaussianBlur stdDeviation="1.5"/>
<feComposite in2="hardAlpha" operator="arithmetic" k2="-1" k3="1"/>
<feColorMatrix type="matrix" values="0 0 0 0 0.980392 0 0 0 0 0.984314 0 0 0 0 1 0 0 0 1 0"/>
<feBlend mode="normal" in2="shape" result="effect1_innerShadow_3274_329305"/>
<feColorMatrix in="SourceAlpha" type="matrix" values="0 0 0 0 0 0 0 0 0 0 0 0 0 0 0 0 0 0 127 0" result="hardAlpha"/>
<feOffset dx="1" dy="1"/>
<feGaussianBlur stdDeviation="1.5"/>
<feComposite in2="hardAlpha" operator="arithmetic" k2="-1" k3="1"/>
<feColorMatrix type="matrix" values="0 0 0 0 0.803922 0 0 0 0 0.819608 0 0 0 0 0.87451 0 0 0 1 0"/>
<feBlend mode="normal" in2="effect1_innerShadow_3274_329305" result="effect2_innerShadow_3274_329305"/>
</filter>
<linearGradient id="paint0_linear_3274_329305" x1="0.000976563" y1="0.00292969" x2="32.001" y2="32.0029" gradientUnits="userSpaceOnUse">
<stop stop-color="white"/>
<stop offset="1"/>
</linearGradient>
</defs>
</svg>
