<svg width="32" height="33" viewBox="0 0 32 33" fill="none" xmlns="http://www.w3.org/2000/svg">
<rect x="0.000976562" y="0.0109863" width="32" height="32" rx="16" fill="#008DE4"/>
<rect x="0.000976562" y="0.0109863" width="32" height="32" rx="16" fill="url(#paint0_linear_3274_329518)" fill-opacity="0.4" style="mix-blend-mode:soft-light"/>
<g filter="url(#filter0_ii_3274_329518)">
<path fill-rule="evenodd" clip-rule="evenodd" d="M19.2592 7.55396C25.993 7.55396 27.1808 11.1901 26.2264 16.3033C25.5834 19.7365 23.9819 22.3662 21.2908 23.6039C20.0743 24.1558 18.9316 24.4682 16.2364 24.4682H8.59753L9.23239 20.9498L15.9498 20.954C19.9883 20.958 21.0655 19.2252 21.5899 17.7033C21.7864 17.1311 22.2411 15.37 22.2574 14.331C22.2861 12.302 21.2827 11.0764 17.8789 11.0764L10.9691 11.0682L11.6039 7.55396H19.2592ZM16.1402 14.2458C16.1402 14.2458 16.0582 14.6638 15.8084 15.6864C15.6199 16.4696 15.3333 17.7642 13.3262 17.7642H5.48657L5.48692 17.7629C5.48806 17.757 5.48852 17.7547 5.48909 17.7519L5.49103 17.7422C5.50203 17.6883 5.53429 17.5333 5.59721 17.2569L5.65571 17.0033C5.69953 16.8156 5.75324 16.5901 5.81834 16.3236L5.83167 16.2681C6.02107 15.4809 6.34022 14.2458 8.30051 14.2458H16.1402Z" fill="#F3F3F4"/>
</g>
<path d="M15.9495 21.204C18.0032 21.206 19.3405 20.7664 20.2366 20.1016C21.1339 19.4359 21.5563 18.5682 21.8262 17.7848L21.8263 17.7845L9.23239 20.9498M15.9495 21.204L15.9498 20.954L15.9496 21.204H15.9495ZM15.9495 21.204L9.44129 21.2M9.44129 21.2L9.47842 20.9942L9.23239 20.9498M9.44129 21.2L8.89668 24.2182M9.44129 21.2L9.23224 21.1998L9.23239 20.9498M9.23239 20.9498L8.89668 24.2182M8.89668 24.2182H16.2364C18.9046 24.2182 20.0105 23.9102 21.1869 23.3765C23.7787 22.1842 25.3466 19.6424 25.9807 16.2575C26.4552 13.7152 26.3806 11.6119 25.4171 10.1487C24.4646 8.7021 22.5882 7.80396 19.2592 7.80396H11.8128L11.2682 10.8186L17.8789 10.8264L17.8792 10.8264L17.8789 11.0764L8.89668 24.2182ZM15.5655 15.6271L15.5653 15.628L15.5625 15.6397C15.4668 16.0376 15.357 16.4938 15.0561 16.8604C14.7658 17.2139 14.2692 17.5142 13.3262 17.5142H5.79564C5.80848 17.4562 5.82349 17.3892 5.84088 17.3128C5.84091 17.3127 5.84094 17.3125 5.84097 17.3124L5.89917 17.0601C5.89919 17.06 5.89922 17.0599 5.89924 17.0598C5.94285 16.873 5.99632 16.6485 6.0612 16.3829L6.06142 16.382L6.07474 16.3266C6.17039 15.929 6.28732 15.4802 6.59194 15.1243C6.88426 14.7827 7.37891 14.4958 8.30051 14.4958H15.8312C15.8288 14.5063 15.8264 14.5172 15.8239 14.5283C15.7726 14.7588 15.6901 15.1173 15.5655 15.6271Z" stroke="white" stroke-opacity="0.8" stroke-width="0.5"/>
<defs>
<filter id="filter0_ii_3274_329518" x="4.48657" y="6.55396" width="23.0286" height="18.9143" filterUnits="userSpaceOnUse" color-interpolation-filters="sRGB">
<feFlood flood-opacity="0" result="BackgroundImageFix"/>
<feBlend mode="normal" in="SourceGraphic" in2="BackgroundImageFix" result="shape"/>
<feColorMatrix in="SourceAlpha" type="matrix" values="0 0 0 0 0 0 0 0 0 0 0 0 0 0 0 0 0 0 127 0" result="hardAlpha"/>
<feOffset dx="-1" dy="-1"/>
<feGaussianBlur stdDeviation="1.5"/>
<feComposite in2="hardAlpha" operator="arithmetic" k2="-1" k3="1"/>
<feColorMatrix type="matrix" values="0 0 0 0 0.980392 0 0 0 0 0.984314 0 0 0 0 1 0 0 0 1 0"/>
<feBlend mode="normal" in2="shape" result="effect1_innerShadow_3274_329518"/>
<feColorMatrix in="SourceAlpha" type="matrix" values="0 0 0 0 0 0 0 0 0 0 0 0 0 0 0 0 0 0 127 0" result="hardAlpha"/>
<feOffset dx="1" dy="1"/>
<feGaussianBlur stdDeviation="1.5"/>
<feComposite in2="hardAlpha" operator="arithmetic" k2="-1" k3="1"/>
<feColorMatrix type="matrix" values="0 0 0 0 0.803922 0 0 0 0 0.819608 0 0 0 0 0.87451 0 0 0 1 0"/>
<feBlend mode="normal" in2="effect1_innerShadow_3274_329518" result="effect2_innerShadow_3274_329518"/>
</filter>
<linearGradient id="paint0_linear_3274_329518" x1="0.000976563" y1="0.0109863" x2="32.001" y2="32.011" gradientUnits="userSpaceOnUse">
<stop stop-color="white"/>
<stop offset="1"/>
</linearGradient>
</defs>
</svg>
