<svg width="32" height="33" viewBox="0 0 32 33" fill="none" xmlns="http://www.w3.org/2000/svg">
<rect x="0.000976562" y="0.00488281" width="32" height="32" rx="16" fill="#3C3C3D"/>
<rect x="0.000976562" y="0.00488281" width="32" height="32" rx="16" fill="url(#paint0_linear_3274_329358)" fill-opacity="0.4" style="mix-blend-mode:soft-light"/>
<g filter="url(#filter0_ii_3274_329358)">
<path fill-rule="evenodd" clip-rule="evenodd" d="M21.9653 17.3289L16.0206 25.8291L16.0206 25.8289L10.0796 17.3289L16.0207 20.8926L21.9653 17.3289ZM16.0206 6.17651L21.9617 16.185L16.0207 19.7505L10.0796 16.185L16.0206 6.17651Z" fill="#F3F3F4"/>
</g>
<path d="M21.0889 18.1457L16.0207 25.3927L10.9557 18.1459L15.8921 21.107L16.0206 21.1841L16.1492 21.107L21.0889 18.1457ZM10.4216 16.0987L16.0206 6.66628L21.6198 16.0987L16.0207 19.459L10.4216 16.0987Z" stroke="white" stroke-opacity="0.8" stroke-width="0.5"/>
<defs>
<filter id="filter0_ii_3274_329358" x="9.07959" y="5.17651" width="13.8857" height="21.6526" filterUnits="userSpaceOnUse" color-interpolation-filters="sRGB">
<feFlood flood-opacity="0" result="BackgroundImageFix"/>
<feBlend mode="normal" in="SourceGraphic" in2="BackgroundImageFix" result="shape"/>
<feColorMatrix in="SourceAlpha" type="matrix" values="0 0 0 0 0 0 0 0 0 0 0 0 0 0 0 0 0 0 127 0" result="hardAlpha"/>
<feOffset dx="-1" dy="-1"/>
<feGaussianBlur stdDeviation="1.5"/>
<feComposite in2="hardAlpha" operator="arithmetic" k2="-1" k3="1"/>
<feColorMatrix type="matrix" values="0 0 0 0 0.980392 0 0 0 0 0.984314 0 0 0 0 1 0 0 0 1 0"/>
<feBlend mode="normal" in2="shape" result="effect1_innerShadow_3274_329358"/>
<feColorMatrix in="SourceAlpha" type="matrix" values="0 0 0 0 0 0 0 0 0 0 0 0 0 0 0 0 0 0 127 0" result="hardAlpha"/>
<feOffset dx="1" dy="1"/>
<feGaussianBlur stdDeviation="1.5"/>
<feComposite in2="hardAlpha" operator="arithmetic" k2="-1" k3="1"/>
<feColorMatrix type="matrix" values="0 0 0 0 0.803922 0 0 0 0 0.819608 0 0 0 0 0.87451 0 0 0 1 0"/>
<feBlend mode="normal" in2="effect1_innerShadow_3274_329358" result="effect2_innerShadow_3274_329358"/>
</filter>
<linearGradient id="paint0_linear_3274_329358" x1="0.000976563" y1="0.00488281" x2="32.001" y2="32.0049" gradientUnits="userSpaceOnUse">
<stop stop-color="white"/>
<stop offset="1"/>
</linearGradient>
</defs>
</svg>
