<svg width="32" height="33" viewBox="0 0 32 33" fill="none" xmlns="http://www.w3.org/2000/svg">
<rect x="0.000976562" y="0.0090332" width="32" height="32" rx="16" fill="#50AF95"/>
<rect x="0.000976562" y="0.0090332" width="32" height="32" rx="16" fill="url(#paint0_linear_3274_329465)" fill-opacity="0.4" style="mix-blend-mode:soft-light"/>
<mask id="path-2-inside-1_3274_329465" fill="white">
<path fill-rule="evenodd" clip-rule="evenodd" d="M23.1017 7.36621C23.1539 7.36621 23.2023 7.39042 23.2335 7.43049L23.2534 7.46338L27.3721 16.1147C27.3989 16.1697 27.3933 16.234 27.3597 16.283L27.3362 16.3103L16.2126 26.9687C16.1564 27.0227 16.0722 27.0304 16.0079 26.9918L15.9777 26.9687L4.85414 16.3097C4.80953 16.2677 4.79198 16.2057 4.80598 16.1479L4.81821 16.114L8.93689 7.46272C8.95892 7.4151 9.00169 7.38139 9.05149 7.37023L9.08995 7.36621H23.1017ZM21.464 10.0435H10.7377V12.6688H14.6767V14.3897L14.3243 14.4081L13.9789 14.4303L13.6411 14.4563L13.3113 14.486L12.9899 14.5193L12.6776 14.556L12.3747 14.5961L12.0819 14.6394L11.7995 14.6858L11.528 14.7353L11.268 14.7876C11.2257 14.7966 11.1838 14.8057 11.1425 14.8149L10.9006 14.8714L10.6714 14.9305C10.6343 14.9406 10.5977 14.9508 10.5617 14.9611L10.3524 15.024C9.54292 15.2803 9.06732 15.5932 9.06732 15.931C9.06732 16.2406 9.46696 16.5293 10.1571 16.7726L10.3524 16.8378L10.5617 16.9007L10.7844 16.9611L11.02 17.0189L11.268 17.0741C11.3104 17.0831 11.3532 17.0919 11.3966 17.1006L11.6623 17.1515L11.9393 17.1995C11.9864 17.2072 12.0339 17.2149 12.0819 17.2223L12.3747 17.2657L12.6776 17.3057L12.9899 17.3425L13.3113 17.3758C13.3655 17.381 13.4202 17.3861 13.4751 17.3911L13.9789 17.4316L14.3243 17.4539L14.6767 17.4723V22.9891H17.5236V17.4703L17.7003 17.4616L18.0484 17.4413L18.3893 17.4172L18.7225 17.3893L19.0474 17.3579L19.3637 17.3229C19.4156 17.3168 19.4672 17.3105 19.5184 17.3041L19.8206 17.2641C19.8701 17.2571 19.9193 17.25 19.968 17.2428L20.2551 17.198L20.5315 17.1501L20.7968 17.0992C20.84 17.0905 20.8828 17.0816 20.9251 17.0727L21.1726 17.0176L21.4078 16.9598L21.63 16.8994C21.666 16.8891 21.7013 16.8788 21.7361 16.8683L21.9381 16.8043C22.6856 16.5543 23.1217 16.2538 23.1217 15.9303C23.1217 15.6437 22.7794 15.375 22.1814 15.1436L21.9944 15.0753C21.9296 15.0529 21.8622 15.0309 21.7926 15.0093L21.5764 14.9459L21.3465 14.885C21.307 14.8751 21.267 14.8653 21.2265 14.8556L20.9769 14.7988C20.9342 14.7896 20.891 14.7804 20.8473 14.7715L20.5791 14.719C20.5334 14.7105 20.4873 14.7022 20.4406 14.694L20.155 14.6462L19.8585 14.6016L19.5516 14.5603L19.2348 14.5226L18.9085 14.4884L18.5735 14.4578C18.5169 14.4531 18.46 14.4484 18.4028 14.444L18.0553 14.4192L17.7004 14.3984L17.5243 14.3897L17.5243 12.6688H21.464V10.0435ZM14.6774 14.5881V16.512L14.9474 16.5282L15.2914 16.5427L15.7346 16.5536L15.9893 16.5562L16.4901 16.5543L16.9727 16.5432L17.3026 16.5283L17.5216 16.5126V14.5894L17.6936 14.5975L18.0318 14.6166L18.362 14.6391L18.6836 14.665L18.9961 14.6941L19.2988 14.7265L19.5913 14.7619L19.873 14.8002C19.919 14.8068 19.9645 14.8136 20.0095 14.8205L20.2738 14.863L20.5259 14.9082L20.7651 14.956L20.9909 15.0063L21.2028 15.0589C21.2369 15.0678 21.2704 15.0769 21.3033 15.086L21.4931 15.1419L21.6675 15.1998C22.1672 15.3766 22.4515 15.5798 22.4515 15.7959C22.4515 16 22.198 16.1926 21.749 16.3623L21.5825 16.4212L21.4003 16.4781C21.337 16.4967 21.2712 16.515 21.203 16.5329L20.9912 16.5855L20.7654 16.6357L20.5262 16.6834L20.2741 16.7286L20.0098 16.7712L19.7338 16.8109L19.4467 16.8477L19.149 16.8816L18.8412 16.9123L18.5241 16.9398L18.198 16.9639L17.8637 16.9846L17.2564 17.0158L17.0594 17.0221L16.7055 17.0292L16.2395 17.0329L15.8472 17.0321L15.3841 17.0256L14.7155 17.0042L14.3346 16.9854L13.9996 16.9647L13.673 16.9407L13.3552 16.9132L13.0468 16.8826L12.7485 16.8488L12.4607 16.812L12.1841 16.7722L11.9192 16.7297L11.6667 16.6845L11.4269 16.6368L11.2006 16.5865L10.9883 16.534L10.7906 16.4791L10.608 16.4222L10.4411 16.3632C9.99096 16.1933 9.7368 16.0005 9.7368 15.7959C9.7368 15.6274 9.90918 15.467 10.2214 15.3207L10.3637 15.2589L10.5225 15.199L10.6973 15.141C10.7278 15.1315 10.7589 15.1221 10.7906 15.1128L10.9883 15.058L11.2006 15.0054C11.2372 14.9968 11.2743 14.9883 11.3121 14.9799L11.5451 14.9309L11.7914 14.8843C11.8335 14.8768 11.8761 14.8694 11.9192 14.862L12.1841 14.8195L12.4607 14.7797L12.7485 14.7428L13.0468 14.7088L13.3552 14.678L13.673 14.6504L13.9996 14.6262L14.3346 14.6053L14.6774 14.5881Z"/>
</mask>
<g filter="url(#filter0_ii_3274_329465)">
<path fill-rule="evenodd" clip-rule="evenodd" d="M23.1017 7.36621C23.1539 7.36621 23.2023 7.39042 23.2335 7.43049L23.2534 7.46338L27.3721 16.1147C27.3989 16.1697 27.3933 16.234 27.3597 16.283L27.3362 16.3103L16.2126 26.9687C16.1564 27.0227 16.0722 27.0304 16.0079 26.9918L15.9777 26.9687L4.85414 16.3097C4.80953 16.2677 4.79198 16.2057 4.80598 16.1479L4.81821 16.114L8.93689 7.46272C8.95892 7.4151 9.00169 7.38139 9.05149 7.37023L9.08995 7.36621H23.1017ZM21.464 10.0435H10.7377V12.6688H14.6767V14.3897L14.3243 14.4081L13.9789 14.4303L13.6411 14.4563L13.3113 14.486L12.9899 14.5193L12.6776 14.556L12.3747 14.5961L12.0819 14.6394L11.7995 14.6858L11.528 14.7353L11.268 14.7876C11.2257 14.7966 11.1838 14.8057 11.1425 14.8149L10.9006 14.8714L10.6714 14.9305C10.6343 14.9406 10.5977 14.9508 10.5617 14.9611L10.3524 15.024C9.54292 15.2803 9.06732 15.5932 9.06732 15.931C9.06732 16.2406 9.46696 16.5293 10.1571 16.7726L10.3524 16.8378L10.5617 16.9007L10.7844 16.9611L11.02 17.0189L11.268 17.0741C11.3104 17.0831 11.3532 17.0919 11.3966 17.1006L11.6623 17.1515L11.9393 17.1995C11.9864 17.2072 12.0339 17.2149 12.0819 17.2223L12.3747 17.2657L12.6776 17.3057L12.9899 17.3425L13.3113 17.3758C13.3655 17.381 13.4202 17.3861 13.4751 17.3911L13.9789 17.4316L14.3243 17.4539L14.6767 17.4723V22.9891H17.5236V17.4703L17.7003 17.4616L18.0484 17.4413L18.3893 17.4172L18.7225 17.3893L19.0474 17.3579L19.3637 17.3229C19.4156 17.3168 19.4672 17.3105 19.5184 17.3041L19.8206 17.2641C19.8701 17.2571 19.9193 17.25 19.968 17.2428L20.2551 17.198L20.5315 17.1501L20.7968 17.0992C20.84 17.0905 20.8828 17.0816 20.9251 17.0727L21.1726 17.0176L21.4078 16.9598L21.63 16.8994C21.666 16.8891 21.7013 16.8788 21.7361 16.8683L21.9381 16.8043C22.6856 16.5543 23.1217 16.2538 23.1217 15.9303C23.1217 15.6437 22.7794 15.375 22.1814 15.1436L21.9944 15.0753C21.9296 15.0529 21.8622 15.0309 21.7926 15.0093L21.5764 14.9459L21.3465 14.885C21.307 14.8751 21.267 14.8653 21.2265 14.8556L20.9769 14.7988C20.9342 14.7896 20.891 14.7804 20.8473 14.7715L20.5791 14.719C20.5334 14.7105 20.4873 14.7022 20.4406 14.694L20.155 14.6462L19.8585 14.6016L19.5516 14.5603L19.2348 14.5226L18.9085 14.4884L18.5735 14.4578C18.5169 14.4531 18.46 14.4484 18.4028 14.444L18.0553 14.4192L17.7004 14.3984L17.5243 14.3897L17.5243 12.6688H21.464V10.0435ZM14.6774 14.5881V16.512L14.9474 16.5282L15.2914 16.5427L15.7346 16.5536L15.9893 16.5562L16.4901 16.5543L16.9727 16.5432L17.3026 16.5283L17.5216 16.5126V14.5894L17.6936 14.5975L18.0318 14.6166L18.362 14.6391L18.6836 14.665L18.9961 14.6941L19.2988 14.7265L19.5913 14.7619L19.873 14.8002C19.919 14.8068 19.9645 14.8136 20.0095 14.8205L20.2738 14.863L20.5259 14.9082L20.7651 14.956L20.9909 15.0063L21.2028 15.0589C21.2369 15.0678 21.2704 15.0769 21.3033 15.086L21.4931 15.1419L21.6675 15.1998C22.1672 15.3766 22.4515 15.5798 22.4515 15.7959C22.4515 16 22.198 16.1926 21.749 16.3623L21.5825 16.4212L21.4003 16.4781C21.337 16.4967 21.2712 16.515 21.203 16.5329L20.9912 16.5855L20.7654 16.6357L20.5262 16.6834L20.2741 16.7286L20.0098 16.7712L19.7338 16.8109L19.4467 16.8477L19.149 16.8816L18.8412 16.9123L18.5241 16.9398L18.198 16.9639L17.8637 16.9846L17.2564 17.0158L17.0594 17.0221L16.7055 17.0292L16.2395 17.0329L15.8472 17.0321L15.3841 17.0256L14.7155 17.0042L14.3346 16.9854L13.9996 16.9647L13.673 16.9407L13.3552 16.9132L13.0468 16.8826L12.7485 16.8488L12.4607 16.812L12.1841 16.7722L11.9192 16.7297L11.6667 16.6845L11.4269 16.6368L11.2006 16.5865L10.9883 16.534L10.7906 16.4791L10.608 16.4222L10.4411 16.3632C9.99096 16.1933 9.7368 16.0005 9.7368 15.7959C9.7368 15.6274 9.90918 15.467 10.2214 15.3207L10.3637 15.2589L10.5225 15.199L10.6973 15.141C10.7278 15.1315 10.7589 15.1221 10.7906 15.1128L10.9883 15.058L11.2006 15.0054C11.2372 14.9968 11.2743 14.9883 11.3121 14.9799L11.5451 14.9309L11.7914 14.8843C11.8335 14.8768 11.8761 14.8694 11.9192 14.862L12.1841 14.8195L12.4607 14.7797L12.7485 14.7428L13.0468 14.7088L13.3552 14.678L13.673 14.6504L13.9996 14.6262L14.3346 14.6053L14.6774 14.5881Z" fill="#F3F3F4"/>
</g>
<path fill-rule="evenodd" clip-rule="evenodd" d="M23.1017 7.36621C23.1539 7.36621 23.2023 7.39042 23.2335 7.43049L23.2534 7.46338L27.3721 16.1147C27.3989 16.1697 27.3933 16.234 27.3597 16.283L27.3362 16.3103L16.2126 26.9687C16.1564 27.0227 16.0722 27.0304 16.0079 26.9918L15.9777 26.9687L4.85414 16.3097C4.80953 16.2677 4.79198 16.2057 4.80598 16.1479L4.81821 16.114L8.93689 7.46272C8.95892 7.4151 9.00169 7.38139 9.05149 7.37023L9.08995 7.36621H23.1017ZM21.464 10.0435H10.7377V12.6688H14.6767V14.3897L14.3243 14.4081L13.9789 14.4303L13.6411 14.4563L13.3113 14.486L12.9899 14.5193L12.6776 14.556L12.3747 14.5961L12.0819 14.6394L11.7995 14.6858L11.528 14.7353L11.268 14.7876C11.2257 14.7966 11.1838 14.8057 11.1425 14.8149L10.9006 14.8714L10.6714 14.9305C10.6343 14.9406 10.5977 14.9508 10.5617 14.9611L10.3524 15.024C9.54292 15.2803 9.06732 15.5932 9.06732 15.931C9.06732 16.2406 9.46696 16.5293 10.1571 16.7726L10.3524 16.8378L10.5617 16.9007L10.7844 16.9611L11.02 17.0189L11.268 17.0741C11.3104 17.0831 11.3532 17.0919 11.3966 17.1006L11.6623 17.1515L11.9393 17.1995C11.9864 17.2072 12.0339 17.2149 12.0819 17.2223L12.3747 17.2657L12.6776 17.3057L12.9899 17.3425L13.3113 17.3758C13.3655 17.381 13.4202 17.3861 13.4751 17.3911L13.9789 17.4316L14.3243 17.4539L14.6767 17.4723V22.9891H17.5236V17.4703L17.7003 17.4616L18.0484 17.4413L18.3893 17.4172L18.7225 17.3893L19.0474 17.3579L19.3637 17.3229C19.4156 17.3168 19.4672 17.3105 19.5184 17.3041L19.8206 17.2641C19.8701 17.2571 19.9193 17.25 19.968 17.2428L20.2551 17.198L20.5315 17.1501L20.7968 17.0992C20.84 17.0905 20.8828 17.0816 20.9251 17.0727L21.1726 17.0176L21.4078 16.9598L21.63 16.8994C21.666 16.8891 21.7013 16.8788 21.7361 16.8683L21.9381 16.8043C22.6856 16.5543 23.1217 16.2538 23.1217 15.9303C23.1217 15.6437 22.7794 15.375 22.1814 15.1436L21.9944 15.0753C21.9296 15.0529 21.8622 15.0309 21.7926 15.0093L21.5764 14.9459L21.3465 14.885C21.307 14.8751 21.267 14.8653 21.2265 14.8556L20.9769 14.7988C20.9342 14.7896 20.891 14.7804 20.8473 14.7715L20.5791 14.719C20.5334 14.7105 20.4873 14.7022 20.4406 14.694L20.155 14.6462L19.8585 14.6016L19.5516 14.5603L19.2348 14.5226L18.9085 14.4884L18.5735 14.4578C18.5169 14.4531 18.46 14.4484 18.4028 14.444L18.0553 14.4192L17.7004 14.3984L17.5243 14.3897L17.5243 12.6688H21.464V10.0435ZM14.6774 14.5881V16.512L14.9474 16.5282L15.2914 16.5427L15.7346 16.5536L15.9893 16.5562L16.4901 16.5543L16.9727 16.5432L17.3026 16.5283L17.5216 16.5126V14.5894L17.6936 14.5975L18.0318 14.6166L18.362 14.6391L18.6836 14.665L18.9961 14.6941L19.2988 14.7265L19.5913 14.7619L19.873 14.8002C19.919 14.8068 19.9645 14.8136 20.0095 14.8205L20.2738 14.863L20.5259 14.9082L20.7651 14.956L20.9909 15.0063L21.2028 15.0589C21.2369 15.0678 21.2704 15.0769 21.3033 15.086L21.4931 15.1419L21.6675 15.1998C22.1672 15.3766 22.4515 15.5798 22.4515 15.7959C22.4515 16 22.198 16.1926 21.749 16.3623L21.5825 16.4212L21.4003 16.4781C21.337 16.4967 21.2712 16.515 21.203 16.5329L20.9912 16.5855L20.7654 16.6357L20.5262 16.6834L20.2741 16.7286L20.0098 16.7712L19.7338 16.8109L19.4467 16.8477L19.149 16.8816L18.8412 16.9123L18.5241 16.9398L18.198 16.9639L17.8637 16.9846L17.2564 17.0158L17.0594 17.0221L16.7055 17.0292L16.2395 17.0329L15.8472 17.0321L15.3841 17.0256L14.7155 17.0042L14.3346 16.9854L13.9996 16.9647L13.673 16.9407L13.3552 16.9132L13.0468 16.8826L12.7485 16.8488L12.4607 16.812L12.1841 16.7722L11.9192 16.7297L11.6667 16.6845L11.4269 16.6368L11.2006 16.5865L10.9883 16.534L10.7906 16.4791L10.608 16.4222L10.4411 16.3632C9.99096 16.1933 9.7368 16.0005 9.7368 15.7959C9.7368 15.6274 9.90918 15.467 10.2214 15.3207L10.3637 15.2589L10.5225 15.199L10.6973 15.141C10.7278 15.1315 10.7589 15.1221 10.7906 15.1128L10.9883 15.058L11.2006 15.0054C11.2372 14.9968 11.2743 14.9883 11.3121 14.9799L11.5451 14.9309L11.7914 14.8843C11.8335 14.8768 11.8761 14.8694 11.9192 14.862L12.1841 14.8195L12.4607 14.7797L12.7485 14.7428L13.0468 14.7088L13.3552 14.678L13.673 14.6504L13.9996 14.6262L14.3346 14.6053L14.6774 14.5881Z" stroke="white" stroke-opacity="0.8" mask="url(#path-2-inside-1_3274_329465)"/>
<defs>
<filter id="filter0_ii_3274_329465" x="3.80127" y="6.36621" width="24.5879" height="21.6497" filterUnits="userSpaceOnUse" color-interpolation-filters="sRGB">
<feFlood flood-opacity="0" result="BackgroundImageFix"/>
<feBlend mode="normal" in="SourceGraphic" in2="BackgroundImageFix" result="shape"/>
<feColorMatrix in="SourceAlpha" type="matrix" values="0 0 0 0 0 0 0 0 0 0 0 0 0 0 0 0 0 0 127 0" result="hardAlpha"/>
<feOffset dx="-1" dy="-1"/>
<feGaussianBlur stdDeviation="1.5"/>
<feComposite in2="hardAlpha" operator="arithmetic" k2="-1" k3="1"/>
<feColorMatrix type="matrix" values="0 0 0 0 0.980392 0 0 0 0 0.984314 0 0 0 0 1 0 0 0 1 0"/>
<feBlend mode="normal" in2="shape" result="effect1_innerShadow_3274_329465"/>
<feColorMatrix in="SourceAlpha" type="matrix" values="0 0 0 0 0 0 0 0 0 0 0 0 0 0 0 0 0 0 127 0" result="hardAlpha"/>
<feOffset dx="1" dy="1"/>
<feGaussianBlur stdDeviation="1.5"/>
<feComposite in2="hardAlpha" operator="arithmetic" k2="-1" k3="1"/>
<feColorMatrix type="matrix" values="0 0 0 0 0.803922 0 0 0 0 0.819608 0 0 0 0 0.87451 0 0 0 1 0"/>
<feBlend mode="normal" in2="effect1_innerShadow_3274_329465" result="effect2_innerShadow_3274_329465"/>
</filter>
<linearGradient id="paint0_linear_3274_329465" x1="0.000976563" y1="0.0090332" x2="32.001" y2="32.009" gradientUnits="userSpaceOnUse">
<stop stop-color="white"/>
<stop offset="1"/>
</linearGradient>
</defs>
</svg>
